<mxfile host="65bd71144e">
    <diagram id="GqjCXQS4JH9q8ot73ZOc" name="Page-1">
        <mxGraphModel dx="612" dy="418" grid="1" gridSize="10" guides="1" tooltips="1" connect="1" arrows="1" fold="1" page="1" pageScale="1" pageWidth="827" pageHeight="1169" math="0" shadow="0">
            <root>
                <mxCell id="0"/>
                <mxCell id="1" parent="0"/>
                <mxCell id="368" value="Image Header" style="shape=table;startSize=40;container=1;collapsible=0;childLayout=tableLayout;noLabel=0;" parent="1" vertex="1">
                    <mxGeometry x="120" y="80" width="320" height="239" as="geometry"/>
                </mxCell>
                <mxCell id="369" value="" style="shape=partialRectangle;collapsible=0;dropTarget=0;pointerEvents=0;fillColor=none;top=0;left=0;bottom=0;right=0;points=[[0,0.5],[1,0.5]];portConstraint=eastwest;" parent="368" vertex="1">
                    <mxGeometry y="40" width="320" height="39" as="geometry"/>
                </mxCell>
                <mxCell id="370" value="&amp;nbsp;.code" style="shape=partialRectangle;html=1;whiteSpace=wrap;connectable=0;overflow=hidden;fillColor=none;top=0;left=0;bottom=0;right=0;pointerEvents=1;comic=0;" parent="369" vertex="1">
                    <mxGeometry width="160" height="39" as="geometry">
                        <mxRectangle width="160" height="39" as="alternateBounds"/>
                    </mxGeometry>
                </mxCell>
                <mxCell id="371" value="" style="shape=partialRectangle;html=1;whiteSpace=wrap;connectable=0;overflow=hidden;fillColor=none;top=0;left=0;bottom=0;right=0;pointerEvents=1;comic=0;" parent="369" vertex="1">
                    <mxGeometry x="160" width="160" height="39" as="geometry">
                        <mxRectangle width="160" height="39" as="alternateBounds"/>
                    </mxGeometry>
                </mxCell>
                <mxCell id="395" value="" style="shape=partialRectangle;collapsible=0;dropTarget=0;pointerEvents=0;fillColor=none;top=0;left=0;bottom=0;right=0;points=[[0,0.5],[1,0.5]];portConstraint=eastwest;" vertex="1" parent="368">
                    <mxGeometry y="79" width="320" height="39" as="geometry"/>
                </mxCell>
                <mxCell id="396" value="&amp;nbsp;.code" style="shape=partialRectangle;html=1;whiteSpace=wrap;connectable=0;overflow=hidden;fillColor=none;top=0;left=0;bottom=0;right=0;pointerEvents=1;" vertex="1" parent="395">
                    <mxGeometry width="160" height="39" as="geometry">
                        <mxRectangle width="160" height="39" as="alternateBounds"/>
                    </mxGeometry>
                </mxCell>
                <mxCell id="397" value="" style="shape=partialRectangle;html=1;whiteSpace=wrap;connectable=0;overflow=hidden;fillColor=none;top=0;left=0;bottom=0;right=0;pointerEvents=1;" vertex="1" parent="395">
                    <mxGeometry x="160" width="160" height="39" as="geometry">
                        <mxRectangle width="160" height="39" as="alternateBounds"/>
                    </mxGeometry>
                </mxCell>
                <mxCell id="372" value="" style="shape=partialRectangle;collapsible=0;dropTarget=0;pointerEvents=0;fillColor=none;top=0;left=0;bottom=0;right=0;points=[[0,0.5],[1,0.5]];portConstraint=eastwest;" parent="368" vertex="1">
                    <mxGeometry y="118" width="320" height="44" as="geometry"/>
                </mxCell>
                <mxCell id="373" value=".data" style="shape=partialRectangle;html=1;whiteSpace=wrap;connectable=0;overflow=hidden;fillColor=none;top=0;left=0;bottom=0;right=0;pointerEvents=1;" parent="372" vertex="1">
                    <mxGeometry width="160" height="44" as="geometry">
                        <mxRectangle width="160" height="44" as="alternateBounds"/>
                    </mxGeometry>
                </mxCell>
                <mxCell id="374" value="" style="shape=partialRectangle;html=1;whiteSpace=wrap;connectable=0;overflow=hidden;fillColor=none;top=0;left=0;bottom=0;right=0;pointerEvents=1;" parent="372" vertex="1">
                    <mxGeometry x="160" width="160" height="44" as="geometry">
                        <mxRectangle width="160" height="44" as="alternateBounds"/>
                    </mxGeometry>
                </mxCell>
                <mxCell id="375" value="" style="shape=partialRectangle;collapsible=0;dropTarget=0;pointerEvents=0;fillColor=none;top=0;left=0;bottom=0;right=0;points=[[0,0.5],[1,0.5]];portConstraint=eastwest;" parent="368" vertex="1">
                    <mxGeometry y="162" width="320" height="39" as="geometry"/>
                </mxCell>
                <mxCell id="376" value=".bss" style="shape=partialRectangle;html=1;whiteSpace=wrap;connectable=0;overflow=hidden;fillColor=none;top=0;left=0;bottom=0;right=0;pointerEvents=1;" parent="375" vertex="1">
                    <mxGeometry width="160" height="39" as="geometry">
                        <mxRectangle width="160" height="39" as="alternateBounds"/>
                    </mxGeometry>
                </mxCell>
                <mxCell id="377" value="" style="shape=partialRectangle;html=1;whiteSpace=wrap;connectable=0;overflow=hidden;fillColor=none;top=0;left=0;bottom=0;right=0;pointerEvents=1;" parent="375" vertex="1">
                    <mxGeometry x="160" width="160" height="39" as="geometry">
                        <mxRectangle width="160" height="39" as="alternateBounds"/>
                    </mxGeometry>
                </mxCell>
                <mxCell id="378" value="" style="shape=partialRectangle;collapsible=0;dropTarget=0;pointerEvents=0;fillColor=none;top=0;left=0;bottom=0;right=0;points=[[0,0.5],[1,0.5]];portConstraint=eastwest;" parent="368" vertex="1">
                    <mxGeometry y="201" width="320" height="38" as="geometry"/>
                </mxCell>
                <mxCell id="379" value="" style="shape=partialRectangle;html=1;whiteSpace=wrap;connectable=0;overflow=hidden;fillColor=none;top=0;left=0;bottom=0;right=0;pointerEvents=1;noLabel=0;align=center;" parent="378" vertex="1">
                    <mxGeometry width="160" height="38" as="geometry">
                        <mxRectangle width="160" height="38" as="alternateBounds"/>
                    </mxGeometry>
                </mxCell>
                <mxCell id="380" value="" style="shape=partialRectangle;html=1;whiteSpace=wrap;connectable=0;overflow=hidden;fillColor=none;top=0;left=0;bottom=0;right=0;pointerEvents=1;noLabel=0;align=center;" parent="378" vertex="1">
                    <mxGeometry x="160" width="160" height="38" as="geometry">
                        <mxRectangle width="160" height="38" as="alternateBounds"/>
                    </mxGeometry>
                </mxCell>
            </root>
        </mxGraphModel>
    </diagram>
</mxfile>